filtEMG_segment_24.mot
version=1
nRows=103
nColumns=5
inDegrees=no
endheader
                Time	                RGAS	             RLATGAS	                RSOL	                RTIA	
          2.85000000	          0.00248705	          0.01562293	          0.00208027	          0.00272075	
          2.85500000	          0.00259890	          0.01564019	          0.00197754	          0.00268852	
          2.86000000	          0.00274278	          0.01558952	          0.00190379	          0.00265122	
          2.86500000	          0.00290314	          0.01549170	          0.00187115	          0.00260958	
          2.87000000	          0.00306343	          0.01537070	          0.00188924	          0.00256443	
          2.87500000	          0.00320772	          0.01525126	          0.00196408	          0.00251685	
          2.88000000	          0.00332214	          0.01515649	          0.00209743	          0.00246825	
          2.88500000	          0.00339618	          0.01510572	          0.00228642	          0.00242043	
          2.89000000	          0.00342358	          0.01511285	          0.00252365	          0.00237563	
          2.89500000	          0.00340292	          0.01518532	          0.00279764	          0.00233637	
          2.90000000	          0.00333759	          0.01532371	          0.00309362	          0.00230523	
          2.90500000	          0.00323545	          0.01552201	          0.00339466	          0.00228456	
          2.91000000	          0.00310797	          0.01576843	          0.00368298	          0.00227612	
          2.91500000	          0.00296910	          0.01604658	          0.00394123	          0.00228069	
          2.92000000	          0.00283391	          0.01633696	          0.00415391	          0.00229782	
          2.92500000	          0.00271716	          0.01661850	          0.00430848	          0.00232563	
          2.93000000	          0.00263186	          0.01687010	          0.00439630	          0.00236080	
          2.93500000	          0.00258808	          0.01707208	          0.00441329	          0.00239880	
          2.94000000	          0.00259198	          0.01720748	          0.00436013	          0.00243418	
          2.94500000	          0.00264525	          0.01726320	          0.00424221	          0.00246119	
          2.95000000	          0.00274491	          0.01723096	          0.00406912	          0.00247433	
          2.95500000	          0.00288362	          0.01710800	          0.00385393	          0.00246912	
          2.96000000	          0.00305034	          0.01689765	          0.00361217	          0.00244262	
          2.96500000	          0.00323137	          0.01660941	          0.00336065	          0.00239399	
          2.97000000	          0.00341163	          0.01625878	          0.00311635	          0.00232470	
          2.97500000	          0.00357611	          0.01586659	          0.00289517	          0.00223858	
          2.98000000	          0.00371128	          0.01545780	          0.00271094	          0.00214155	
          2.98500000	          0.00380638	          0.01505992	          0.00257456	          0.00204107	
          2.99000000	          0.00385453	          0.01470102	          0.00249341	          0.00194552	
          2.99500000	          0.00385335	          0.01440752	          0.00247095	          0.00186331	
          3.00000000	          0.00380531	          0.01420195	          0.00250664	          0.00180206	
          3.00500000	          0.00371751	          0.01410090	          0.00259608	          0.00176786	
          3.01000000	          0.00360107	          0.01411335	          0.00273132	          0.00176468	
          3.01500000	          0.00347009	          0.01423958	          0.00290142	          0.00179396	
          3.02000000	          0.00334032	          0.01447079	          0.00309311	          0.00185456	
          3.02500000	          0.00322763	          0.01478943	          0.00329164	          0.00194291	
          3.03000000	          0.00314638	          0.01517031	          0.00348167	          0.00205345	
          3.03500000	          0.00310797	          0.01558228	          0.00364825	          0.00217922	
          3.04000000	          0.00311959	          0.01599048	          0.00377789	          0.00231263	
          3.04500000	          0.00318336	          0.01635890	          0.00385953	          0.00244619	
          3.05000000	          0.00329598	          0.01665308	          0.00388537	          0.00257330	
          3.05500000	          0.00344889	          0.01684274	          0.00385164	          0.00268874	
          3.06000000	          0.00362901	          0.01690413	          0.00375895	          0.00278914	
          3.06500000	          0.00381990	          0.01682185	          0.00361240	          0.00287311	
          3.07000000	          0.00400335	          0.01659016	          0.00342124	          0.00294113	
          3.07500000	          0.00416116	          0.01621340	          0.00319825	          0.00299529	
          3.08000000	          0.00427693	          0.01570572	          0.00295867	          0.00303881	
          3.08500000	          0.00433776	          0.01508998	          0.00271901	          0.00307544	
          3.09000000	          0.00433549	          0.01439602	          0.00249566	          0.00310889	
          3.09500000	          0.00426761	          0.01365834	          0.00230358	          0.00314222	
          3.10000000	          0.00413749	          0.01291346	          0.00215508	          0.00317742	
          3.10500000	          0.00395406	          0.01219723	          0.00205893	          0.00321508	
          3.11000000	          0.00373099	          0.01154224	          0.00201974	          0.00325427	
          3.11500000	          0.00348531	          0.01097554	          0.00203782	          0.00329259	
          3.12000000	          0.00323588	          0.01051700	          0.00210933	          0.00332646	
          3.12500000	          0.00300163	          0.01017830	          0.00222681	          0.00335144	
          3.13000000	          0.00279993	          0.00996258	          0.00237998	          0.00336280	
          3.13500000	          0.00264514	          0.00986502	          0.00255669	          0.00335606	
          3.14000000	          0.00254750	          0.00987386	          0.00274402	          0.00332758	
          3.14500000	          0.00251251	          0.00997220	          0.00292926	          0.00327511	
          3.15000000	          0.00254066	          0.01013993	          0.00310095	          0.00319821	
          3.15500000	          0.00262769	          0.01035591	          0.00324964	          0.00309859	
          3.16000000	          0.00276516	          0.01060000	          0.00336849	          0.00298018	
          3.16500000	          0.00294138	          0.01085470	          0.00345367	          0.00284910	
          3.17000000	          0.00314242	          0.01110639	          0.00350448	          0.00271335	
          3.17500000	          0.00335332	          0.01134586	          0.00352321	          0.00258231	
          3.18000000	          0.00355917	          0.01156825	          0.00351474	          0.00246619	
          3.18500000	          0.00374608	          0.01177239	          0.00348604	          0.00237520	
          3.19000000	          0.00390209	          0.01195969	          0.00344535	          0.00231886	
          3.19500000	          0.00401770	          0.01213272	          0.00340137	          0.00230516	
          3.20000000	          0.00408629	          0.01229378	          0.00336240	          0.00233987	
          3.20500000	          0.00410429	          0.01244356	          0.00333543	          0.00242596	
          3.21000000	          0.00407120	          0.01258024	          0.00332551	          0.00256318	
          3.21500000	          0.00398938	          0.01269903	          0.00333510	          0.00274782	
          3.22000000	          0.00386377	          0.01279224	          0.00336387	          0.00297281	
          3.22500000	          0.00370160	          0.01284993	          0.00340863	          0.00322794	
          3.23000000	          0.00351185	          0.01286099	          0.00346363	          0.00350047	
          3.23500000	          0.00330490	          0.01281452	          0.00352108	          0.00377586	
          3.24000000	          0.00309190	          0.01270130	          0.00357191	          0.00403875	
          3.24500000	          0.00288435	          0.01251515	          0.00360670	          0.00427401	
          3.25000000	          0.00269341	          0.01225410	          0.00361657	          0.00446784	
          3.25500000	          0.00252939	          0.01192106	          0.00359415	          0.00460881	
          3.26000000	          0.00240116	          0.01152412	          0.00353430	          0.00468872	
          3.26500000	          0.00231556	          0.01107629	          0.00343467	          0.00470322	
          3.27000000	          0.00227701	          0.01059483	          0.00329597	          0.00465221	
          3.27500000	          0.00228710	          0.01010027	          0.00312196	          0.00453981	
          3.28000000	          0.00234447	          0.00961509	          0.00291909	          0.00437406	
          3.28500000	          0.00244481	          0.00916234	          0.00269598	          0.00416626	
          3.29000000	          0.00258116	          0.00876420	          0.00246265	          0.00393017	
          3.29500000	          0.00274433	          0.00844072	          0.00222970	          0.00368090	
          3.30000000	          0.00292359	          0.00820857	          0.00200747	          0.00343386	
          3.30500000	          0.00310745	          0.00808017	          0.00180527	          0.00320370	
          3.31000000	          0.00328458	          0.00806299	          0.00163088	          0.00300331	
          3.31500000	          0.00344461	          0.00815916	          0.00149009	          0.00284310	
          3.32000000	          0.00357895	          0.00836537	          0.00138664	          0.00273048	
          3.32500000	          0.00368144	          0.00867298	          0.00132226	          0.00266954	
          3.33000000	          0.00374866	          0.00906842	          0.00129692	          0.00266106	
          3.33500000	          0.00378018	          0.00953377	          0.00130925	          0.00270271	
          3.34000000	          0.00377837	          0.01004757	          0.00135694	          0.00278938	
          3.34500000	          0.00374807	          0.01058576	          0.00143723	          0.00291377	
          3.35000000	          0.00369601	          0.01112282	          0.00154718	          0.00306689	
          3.35500000	          0.00363009	          0.01163302	          0.00168398	          0.00323875	
          3.36000000	          0.00355859	          0.01209182	          0.00184501	          0.00341896	
